<?xml version="1.0" standalone="no"?><!DOCTYPE svg PUBLIC "-//W3C//DTD SVG 1.1//EN" "http://www.w3.org/Graphics/SVG/1.1/DTD/svg11.dtd"><svg t="1734194482346" class="icon" viewBox="0 0 1024 1024" version="1.1" xmlns="http://www.w3.org/2000/svg" p-id="6180" xmlns:xlink="http://www.w3.org/1999/xlink" width="200" height="200"><path d="M511.33 512.22m-448.47 0a448.47 448.47 0 1 0 896.94 0 448.47 448.47 0 1 0-896.94 0Z" fill="#44AD44" p-id="6181"></path><path d="M249.76 537.22s-23.99-105.37-13.95-184.02 9.35-125.95 41.73-145.57c18.28-11.08 30.07 1.17 78.43 34.04S449 366.64 449 366.64L249.76 537.22z" fill="#FFE7E1" p-id="6182"></path><path d="M273.81 523.37s-16.82-73.91-9.79-129.07c7.04-55.17 6.56-88.34 29.27-102.1 12.82-7.77 21.09 0.82 55.01 23.88 33.92 23.05 65.25 87.65 65.25 87.65L273.81 523.37z" fill="#F4B1A4" p-id="6183"></path><path d="M772.9 537.54s23.99-105.37 13.95-184.02c-10.03-78.65-9.35-125.95-41.73-145.57-18.28-11.08-30.07 1.17-78.43 34.04s-93.03 124.97-93.03 124.97L772.9 537.54z" fill="#FFE7E1" p-id="6184"></path><path d="M748.85 523.69s16.82-73.91 9.79-129.07-6.56-88.34-29.27-102.1c-12.82-7.77-21.09 0.82-55.01 23.88-33.92 23.05-65.25 87.65-65.25 87.65l139.74 119.64z" fill="#F4B1A4" p-id="6185"></path><path d="M650.33 736.59c33.16-29.12 102.75-70.12 119.31-110.95 0.85-2.09 1.59-4.13 2.25-6.16 3.14-13.77 4.81-27.99 4.81-42.53 0-123.68-118.92-223.94-265.63-223.94-146.7 0-265.63 100.26-265.63 223.94 0 14.54 1.66 28.76 4.81 42.53a94.38 94.38 0 0 0 2.25 6.16c16.56 40.83 86.15 81.83 119.31 110.95 57.8 50.76 87.28 62.24 126.05 64.02 4.38 0.18 8.78 0.28 13.21 0.28 4.43 0 8.83-0.1 13.21-0.28 38.77-1.78 68.25-13.26 126.05-64.02z" fill="#FFE7E1" p-id="6186"></path><path d="M644.86 578.4m-51.57 0a51.57 51.57 0 1 0 103.14 0 51.57 51.57 0 1 0-103.14 0Z" fill="#FFFFFF" p-id="6187"></path><path d="M379.04 578.4m-51.57 0a51.57 51.57 0 1 0 103.14 0 51.57 51.57 0 1 0-103.14 0Z" fill="#FFFFFF" p-id="6188"></path><path d="M379.04 578.4m-35.75 0a35.75 35.75 0 1 0 71.5 0 35.75 35.75 0 1 0-71.5 0Z" fill="#8CD9EA" p-id="6189"></path><path d="M384.48 564.66m-12.29 0a12.29 12.29 0 1 0 24.58 0 12.29 12.29 0 1 0-24.58 0Z" fill="#FFFFFF" p-id="6190"></path><path d="M644.86 578.4m-51.57 0a51.57 51.57 0 1 0 103.14 0 51.57 51.57 0 1 0-103.14 0Z" fill="#FFFFFF" p-id="6191"></path><path d="M644.86 578.4m-35.75 0a35.75 35.75 0 1 0 71.5 0 35.75 35.75 0 1 0-71.5 0Z" fill="#8CD9EA" p-id="6192"></path><path d="M651.42 564.66m-12.29 0a12.29 12.29 0 1 0 24.58 0 12.29 12.29 0 1 0-24.58 0Z" fill="#FFFFFF" p-id="6193"></path><path d="M483.14 650.85c0.01-8.26 55.69-6.98 55.86-0.01 0.32 13.04-18.55 31.5-28.31 31.54-9.71 0.05-27.56-17.25-27.55-31.53z" fill="#D08C7D" p-id="6194"></path><path d="M481.12 743.1l-3.07-2.77 30.86-34.24v-25.95h4.13v27.54z" fill="#D08C7D" p-id="6195"></path><path d="M541.22 743.11l-32.32-35.44 0.39-27.56 4.14 0.06-0.38 25.93 31.22 34.22z" fill="#D08C7D" p-id="6196"></path></svg>