<?xml version="1.0" standalone="no"?><!DOCTYPE svg PUBLIC "-//W3C//DTD SVG 1.1//EN" "http://www.w3.org/Graphics/SVG/1.1/DTD/svg11.dtd"><svg t="1734194435690" class="icon" viewBox="0 0 1024 1024" version="1.1" xmlns="http://www.w3.org/2000/svg" p-id="3624" xmlns:xlink="http://www.w3.org/1999/xlink" width="200" height="200"><path d="M511 511.75m-448.47 0a448.47 448.47 0 1 0 896.94 0 448.47 448.47 0 1 0-896.94 0Z" fill="#D6CC54" p-id="3625"></path><path d="M236.73 481.39s3.25-81.77 11.86-140.08c8.61-58.3 32.87-156.91 32.87-156.91l93.75 162.65-138.48 134.34z" fill="#FBF5EF" p-id="3626"></path><path d="M256.94 462.22s1.85-46.56 6.75-79.76 18.72-89.34 18.72-89.34l53.38 92.61-78.85 76.49z" fill="#F8C8A4" p-id="3627"></path><path d="M785.38 481.39s-3.25-81.77-11.86-140.08c-8.61-58.3-32.87-156.91-32.87-156.91L646.9 347.05l138.48 134.34z" fill="#FBF5EF" p-id="3628"></path><path d="M765.17 462.22s-1.85-46.56-6.75-79.76-18.72-89.34-18.72-89.34l-53.38 92.61 78.85 76.49z" fill="#F8C8A4" p-id="3629"></path><path d="M221.14 559.24a289.24 243.85 0 1 0 578.48 0 289.24 243.85 0 1 0-578.48 0Z" fill="#FBF5EF" p-id="3630"></path><path d="M305.96 587.22a204.09 153.36 0 1 0 408.18 0 204.09 153.36 0 1 0-408.18 0Z" fill="#C0BBB7" p-id="3631"></path><path d="M438.1 622.96a71.62 53.82 0 1 0 143.24 0 71.62 53.82 0 1 0-143.24 0Z" fill="#9E9A97" p-id="3632"></path><path d="M378.68 560.69m-51.57 0a51.57 51.57 0 1 0 103.14 0 51.57 51.57 0 1 0-103.14 0Z" fill="#FFFFFF" p-id="3633"></path><path d="M378.68 560.69m-35.75 0a35.75 35.75 0 1 0 71.5 0 35.75 35.75 0 1 0-71.5 0Z" fill="#5FB7FF" p-id="3634"></path><path d="M390.97 546.95m-12.29 0a12.29 12.29 0 1 0 24.58 0 12.29 12.29 0 1 0-24.58 0Z" fill="#FFFFFF" p-id="3635"></path><path d="M644.5 560.69m-51.57 0a51.57 51.57 0 1 0 103.14 0 51.57 51.57 0 1 0-103.14 0Z" fill="#FFFFFF" p-id="3636"></path><path d="M644.5 560.69m-35.75 0a35.75 35.75 0 1 0 71.5 0 35.75 35.75 0 1 0-71.5 0Z" fill="#5FB7FF" p-id="3637"></path><path d="M658.89 546.95m-12.29 0a12.29 12.29 0 1 0 24.58 0 12.29 12.29 0 1 0-24.58 0Z" fill="#FFFFFF" p-id="3638"></path><path d="M483.07 633.14c0.01-8.26 55.69-6.98 55.86-0.01 0.32 13.04-18.55 31.5-28.31 31.54-9.71 0.05-27.56-17.25-27.55-31.53z" fill="#371E19" p-id="3639"></path><path d="M480.34 725.01l-2.23-2.01 31-34.4v-26.17h3v27.32z" fill="#371E19" p-id="3640"></path><path d="M541.28 725.02l-32.17-35.27 0.39-27.34 3 0.05-0.38 26.15 31.38 34.38z" fill="#371E19" p-id="3641"></path></svg>