<?xml version="1.0" standalone="no"?><!DOCTYPE svg PUBLIC "-//W3C//DTD SVG 1.1//EN" "http://www.w3.org/Graphics/SVG/1.1/DTD/svg11.dtd"><svg t="1734194431998" class="icon" viewBox="0 0 1024 1024" version="1.1" xmlns="http://www.w3.org/2000/svg" p-id="3442" xmlns:xlink="http://www.w3.org/1999/xlink" width="200" height="200"><path d="M511.28 512.57m-448.47 0a448.47 448.47 0 1 0 896.94 0 448.47 448.47 0 1 0-896.94 0Z" fill="#BF47B4" p-id="3443"></path><path d="M237.15 482.21s3.25-81.77 11.86-140.08c8.61-58.3 32.87-156.91 32.87-156.91l93.75 162.65-138.48 134.34z" fill="#C0BBB7" p-id="3444"></path><path d="M257.37 463.05s1.85-46.56 6.75-79.76 18.72-89.34 18.72-89.34l53.38 92.61-78.85 76.49z" fill="#E8E8E8" p-id="3445"></path><path d="M785.8 482.21s-3.25-81.77-11.86-140.08c-8.61-58.3-32.87-156.91-32.87-156.91l-93.75 162.65L785.8 482.21z" fill="#C0BBB7" p-id="3446"></path><path d="M765.59 463.05s-1.85-46.56-6.75-79.76-18.72-89.34-18.72-89.34l-53.38 92.61 78.85 76.49z" fill="#E8E8E8" p-id="3447"></path><path d="M222.2 560.07a289.24 243.85 0 1 0 578.48 0 289.24 243.85 0 1 0-578.48 0Z" fill="#C0BBB7" p-id="3448"></path><path d="M499.34 316.44c-2.29 19.29-3.66 43.91-3.66 70.72 0 61.92 7.31 112.11 16.34 112.11s16.34-50.19 16.34-112.11c0-26.79-1.37-51.38-3.65-70.66-4.5-0.18-9.02-0.28-13.57-0.28-3.96 0-7.89 0.09-11.8 0.22zM430.68 350.77c0 61.92 7.31 112.11 16.34 112.11s16.34-50.19 16.34-112.11c0-10.8-0.22-21.25-0.64-31.13a333.845 333.845 0 0 0-31.62 6.05c-0.28 8.06-0.42 16.46-0.42 25.08zM560.67 351.91c0 61.92 7.31 112.11 16.34 112.11s16.34-50.19 16.34-112.11c0-8.87-0.15-17.51-0.44-25.79a332.253 332.253 0 0 0-31.56-6.23c-0.44 10.15-0.68 20.89-0.68 32.02z" fill="#7E7E7E" p-id="3449"></path><path d="M580.96 597.26c-26.05-19.04-24.54-51.26-38.03-71.49-12.34-18.5-27.26-18.14-29.72-17.94-2.46-0.2-17.38-0.56-29.72 17.94-13.5 20.24-11.99 52.46-38.03 71.49-26.05 19.04-102.17 70.83-109.25 86.09-7.08 15.26-16.14 23-8.68 64.91v0.02c49.99 34.76 114.06 55.63 183.91 55.63 71.75 0 137.38-22.03 187.93-58.5 6.55-39.41-2.24-47.16-9.16-62.07-7.08-15.25-83.2-67.04-109.25-86.08z" fill="#E8E8E8" p-id="3450"></path><path d="M379.11 561.51m-51.57 0a51.57 51.57 0 1 0 103.14 0 51.57 51.57 0 1 0-103.14 0Z" fill="#FFFFFF" p-id="3451"></path><path d="M379.11 561.51m-35.75 0a35.75 35.75 0 1 0 71.5 0 35.75 35.75 0 1 0-71.5 0Z" fill="#C5C535" p-id="3452"></path><path d="M391.4 547.78m-12.29 0a12.29 12.29 0 1 0 24.58 0 12.29 12.29 0 1 0-24.58 0Z" fill="#FFFFFF" p-id="3453"></path><path d="M644.92 561.51m-51.57 0a51.57 51.57 0 1 0 103.14 0 51.57 51.57 0 1 0-103.14 0Z" fill="#FFFFFF" p-id="3454"></path><path d="M644.92 561.51m-35.75 0a35.75 35.75 0 1 0 71.5 0 35.75 35.75 0 1 0-71.5 0Z" fill="#C5C535" p-id="3455"></path><path d="M659.31 547.78m-12.29 0a12.29 12.29 0 1 0 24.58 0 12.29 12.29 0 1 0-24.58 0Z" fill="#FFFFFF" p-id="3456"></path><path d="M483.49 633.97c0.01-8.26 55.69-6.98 55.86-0.01 0.32 13.04-18.55 31.5-28.31 31.54-9.71 0.04-27.56-17.26-27.55-31.53z" fill="#D08C7D" p-id="3457"></path><path d="M481.18 726.21l-3.07-2.77 30.86-34.23v-25.95h4.13v27.54z" fill="#D08C7D" p-id="3458"></path><path d="M541.28 726.22l-32.32-35.43 0.4-27.56 4.13 0.06-0.37 25.92 31.22 34.22z" fill="#D08C7D" p-id="3459"></path></svg>