<?xml version="1.0" standalone="no"?><!DOCTYPE svg PUBLIC "-//W3C//DTD SVG 1.1//EN" "http://www.w3.org/Graphics/SVG/1.1/DTD/svg11.dtd"><svg t="1734194428520" class="icon" viewBox="0 0 1024 1024" version="1.1" xmlns="http://www.w3.org/2000/svg" p-id="3260" xmlns:xlink="http://www.w3.org/1999/xlink" width="200" height="200"><path d="M511.28 512.57m-448.47 0a448.47 448.47 0 1 0 896.94 0 448.47 448.47 0 1 0-896.94 0Z" fill="#643ABF" p-id="3261"></path><path d="M237.31 482.72s3.25-81.77 11.86-140.08 32.87-156.91 32.87-156.91l93.75 162.65-138.48 134.34z" fill="#F0C786" p-id="3262"></path><path d="M257.52 463.55s1.85-46.56 6.75-79.76 18.72-89.34 18.72-89.34l53.38 92.61-78.85 76.49z" fill="#FCEBE0" p-id="3263"></path><path d="M785.95 482.72s-3.25-81.77-11.86-140.08-32.87-156.91-32.87-156.91l-93.75 162.65 138.48 134.34z" fill="#F0C786" p-id="3264"></path><path d="M765.74 463.55s-1.85-46.56-6.75-79.76-18.72-89.34-18.72-89.34l-53.38 92.61 78.85 76.49z" fill="#FCEBE0" p-id="3265"></path><path d="M222.04 560.57a289.24 243.85 0 1 0 578.48 0 289.24 243.85 0 1 0-578.48 0Z" fill="#F6E7CA" p-id="3266"></path><path d="M800.52 560.57c0-134.67-129.5-243.85-289.24-243.85S222.04 425.89 222.04 560.57c0 48.79 17.01 94.23 46.29 132.35 177.66-3.04 205.24-182.66 243.84-182.66 36.79 0 68.48 177.32 242.08 182.64 29.27-38.1 46.27-83.54 46.27-132.33z" fill="#F0C786" p-id="3267"></path><path d="M499.49 316.94c-2.29 19.29-3.66 43.91-3.66 70.72 0 61.92 6.72 100.79 15.75 100.79s16.93-38.88 16.93-100.79c0-26.79-1.37-51.38-3.65-70.66-4.5-0.18-9.02-0.28-13.57-0.28-3.96 0.01-7.88 0.09-11.8 0.22zM430.84 351.28c0 61.92 7.31 112.11 16.34 112.11s16.34-50.19 16.34-112.11c0-10.8-0.22-21.25-0.64-31.13a333.845 333.845 0 0 0-31.62 6.05c-0.28 8.06-0.42 16.45-0.42 25.08zM560.83 352.42c0 61.92 7.31 112.11 16.34 112.11s16.34-50.19 16.34-112.11c0-8.87-0.15-17.51-0.44-25.79a332.253 332.253 0 0 0-31.56-6.23c-0.44 10.14-0.68 20.89-0.68 32.02z" fill="#C7983C" p-id="3268"></path><path d="M379.26 562.02m-51.57 0a51.57 51.57 0 1 0 103.14 0 51.57 51.57 0 1 0-103.14 0Z" fill="#FFFFFF" p-id="3269"></path><path d="M379.26 562.02m-35.75 0a35.75 35.75 0 1 0 71.5 0 35.75 35.75 0 1 0-71.5 0Z" fill="#C0D127" p-id="3270"></path><path d="M391.55 548.28m-12.29 0a12.29 12.29 0 1 0 24.58 0 12.29 12.29 0 1 0-24.58 0Z" fill="#FFFFFF" p-id="3271"></path><path d="M645.08 562.02m-51.57 0a51.57 51.57 0 1 0 103.14 0 51.57 51.57 0 1 0-103.14 0Z" fill="#FFFFFF" p-id="3272"></path><path d="M645.08 562.02m-35.75 0a35.75 35.75 0 1 0 71.5 0 35.75 35.75 0 1 0-71.5 0Z" fill="#C0D127" p-id="3273"></path><path d="M659.47 548.28m-12.29 0a12.29 12.29 0 1 0 24.58 0 12.29 12.29 0 1 0-24.58 0Z" fill="#FFFFFF" p-id="3274"></path><path d="M483.65 634.47c0.01-8.26 55.69-6.98 55.86-0.01 0.32 13.04-18.55 31.5-28.31 31.54-9.71 0.05-27.56-17.25-27.55-31.53z" fill="#D08C7D" p-id="3275"></path><path d="M481.34 726.72l-3.07-2.77 30.86-34.24v-25.95h4.13v27.54z" fill="#D08C7D" p-id="3276"></path><path d="M541.44 726.73l-32.33-35.43 0.4-27.57 4.13 0.06-0.37 25.93 31.22 34.22z" fill="#D08C7D" p-id="3277"></path></svg>